<svg width="18" height="16" viewBox="0 0 18 16" fill="none" xmlns="http://www.w3.org/2000/svg">
<path d="M12.5813 2.59687L15.4 5.41562C15.5187 5.53437 15.5187 5.72812 15.4 5.84687L8.575 12.6719L5.675 12.9937C5.2875 13.0375 4.95938 12.7094 5.00313 12.3219L5.325 9.42187L12.15 2.59687C12.2687 2.47812 12.4625 2.47812 12.5813 2.59687ZM17.6437 1.88125L16.1187 0.35625C15.6437 -0.11875 14.8719 -0.11875 14.3938 0.35625L13.2875 1.4625C13.1688 1.58125 13.1688 1.775 13.2875 1.89375L16.1063 4.7125C16.225 4.83125 16.4188 4.83125 16.5375 4.7125L17.6437 3.60625C18.1187 3.12812 18.1187 2.35625 17.6437 1.88125V1.88125ZM12 10.8156V13.9969H2V3.99687H9.18125C9.28125 3.99687 9.375 3.95625 9.44687 3.8875L10.6969 2.6375C10.9344 2.4 10.7656 1.99687 10.4312 1.99687H1.5C0.671875 1.99687 0 2.66875 0 3.49687V14.4969C0 15.325 0.671875 15.9969 1.5 15.9969H12.5C13.3281 15.9969 14 15.325 14 14.4969V9.56562C14 9.23125 13.5969 9.06562 13.3594 9.3L12.1094 10.55C12.0406 10.6219 12 10.7156 12 10.8156Z" fill="#0E3536"/>
</svg>
